<?xml version="1.0" encoding="us-ascii" standalone="no"?><svg xmlns="http://www.w3.org/2000/svg" xmlns:xlink="http://www.w3.org/1999/xlink" contentStyleType="text/css" height="1762px" preserveAspectRatio="none" style="width:2394px;height:1762px;background:#FFFFFF;" version="1.1" viewBox="0 0 2394 1762" width="2394px" zoomAndPan="magnify"><defs/><g><!--cluster Visitor--><g id="cluster_Visitor"><path d="M8.5,6 L51.5625,6 A3.75,3.75 0 0 1 54.0625,8.5 L61.0625,28.0986 L1858.5,28.0986 A2.5,2.5 0 0 1 1861,30.5986 L1861,1406.52 A2.5,2.5 0 0 1 1858.5,1409.02 L8.5,1409.02 A2.5,2.5 0 0 1 6,1406.52 L6,8.5 A2.5,2.5 0 0 1 8.5,6 " fill="none" style="stroke:#000000;stroke-width:1.5;"/><line style="stroke:#000000;stroke-width:1.5;" x1="6" x2="61.0625" y1="28.0986" y2="28.0986"/><text fill="#000000" font-family="sans-serif" font-size="14" font-weight="bold" lengthAdjust="spacing" textLength="42.0625" x="10" y="21.1318">Visitor</text></g><!--cluster Type--><g id="cluster_Type"><path d="M1703.5,609.62 L1738.25,609.62 A3.75,3.75 0 0 1 1740.75,612.12 L1747.75,631.7186 L1834.5,631.7186 A2.5,2.5 0 0 1 1837,634.2186 L1837,706.12 A2.5,2.5 0 0 1 1834.5,708.62 L1703.5,708.62 A2.5,2.5 0 0 1 1701,706.12 L1701,612.12 A2.5,2.5 0 0 1 1703.5,609.62 " fill="none" style="stroke:#000000;stroke-width:1.5;"/><line style="stroke:#000000;stroke-width:1.5;" x1="1701" x2="1747.75" y1="631.7186" y2="631.7186"/><text fill="#000000" font-family="sans-serif" font-size="14" font-weight="bold" lengthAdjust="spacing" textLength="33.75" x="1705" y="624.7518">Type</text></g><!--cluster Symbols--><g id="cluster_Symbols"><path d="M32.5,601.57 L89.5625,601.57 A3.75,3.75 0 0 1 92.0625,604.07 L99.0625,623.6686 L561.5,623.6686 A2.5,2.5 0 0 1 564,626.1686 L564,1169.24 A2.5,2.5 0 0 1 561.5,1171.74 L32.5,1171.74 A2.5,2.5 0 0 1 30,1169.24 L30,604.07 A2.5,2.5 0 0 1 32.5,601.57 " fill="none" style="stroke:#000000;stroke-width:1.5;"/><line style="stroke:#000000;stroke-width:1.5;" x1="30" x2="99.0625" y1="623.6686" y2="623.6686"/><text fill="#000000" font-family="sans-serif" font-size="14" font-weight="bold" lengthAdjust="spacing" textLength="56.0625" x="34" y="616.7018">Symbols</text></g><!--cluster IntermediateCode--><g id="cluster_IntermediateCode"><path d="M590.5,522.37 L710.5,522.37 A3.75,3.75 0 0 1 713,524.87 L720,544.4686 L1674.5,544.4686 A2.5,2.5 0 0 1 1677,546.9686 L1677,1382.52 A2.5,2.5 0 0 1 1674.5,1385.02 L590.5,1385.02 A2.5,2.5 0 0 1 588,1382.52 L588,524.87 A2.5,2.5 0 0 1 590.5,522.37 " fill="none" style="stroke:#000000;stroke-width:1.5;"/><line style="stroke:#000000;stroke-width:1.5;" x1="588" x2="720" y1="544.4686" y2="544.4686"/><text fill="#000000" font-family="sans-serif" font-size="14" font-weight="bold" lengthAdjust="spacing" textLength="119" x="592" y="537.5018">IntermediateCode</text></g><!--cluster Instruction--><g id="cluster_Instruction"><path d="M614.5,565.37 L685.3125,565.37 A3.75,3.75 0 0 1 687.8125,567.87 L694.8125,587.4686 L1171.5,587.4686 A2.5,2.5 0 0 1 1174,589.9686 L1174,1120.94 A2.5,2.5 0 0 1 1171.5,1123.44 L614.5,1123.44 A2.5,2.5 0 0 1 612,1120.94 L612,567.87 A2.5,2.5 0 0 1 614.5,565.37 " fill="none" style="stroke:#000000;stroke-width:1.5;"/><line style="stroke:#000000;stroke-width:1.5;" x1="612" x2="694.8125" y1="587.4686" y2="587.4686"/><text fill="#000000" font-family="sans-serif" font-size="14" font-weight="bold" lengthAdjust="spacing" textLength="69.8125" x="616" y="580.5018">Instruction</text></g><!--class Visitor--><g id="elem_Visitor"><rect codeLine="4" fill="#F1F1F1" height="434.3672" id="Visitor" rx="2.5" ry="2.5" style="stroke:#181818;stroke-width:0.5;" width="301" x="1276.5" y="41"/><ellipse cx="1403.25" cy="57" fill="#A9DCDF" rx="11" ry="11" style="stroke:#181818;stroke-width:1.0;"/><path d="M1404.7813,58.9375 L1405.1094,59.7344 L1404.8281,59.7344 C1404.375,59.7344 1404.25,59.7656 1404.0781,59.875 C1403.7969,60.0156 1403.625,60.3125 1403.625,60.6094 C1403.625,60.9063 1403.7656,61.1563 1404,61.3281 C1404.1719,61.4531 1404.4063,61.5 1404.8281,61.5 L1407.1875,61.5 C1407.5469,61.5 1407.7969,61.4688 1407.9375,61.375 C1408.2031,61.2344 1408.375,60.9219 1408.375,60.6094 C1408.375,60.3438 1408.2344,60.0781 1408,59.9063 C1407.8125,59.7813 1407.6563,59.75 1407.2031,59.7344 L1403.8125,51.9063 L1400.0938,51.9063 C1399.6406,51.9063 1399.5,51.9219 1399.3281,52.0313 C1399.0625,52.2031 1398.8906,52.4844 1398.8906,52.7813 C1398.8906,53.0625 1399.0313,53.3281 1399.2813,53.5 C1399.4531,53.625 1399.6406,53.6563 1400.0938,53.6563 L1401.0625,53.6563 L1398.4844,59.7344 C1397.7344,59.7344 1397.3281,60.0313 1397.3281,60.6094 C1397.3281,61.2188 1397.7188,61.5 1398.5156,61.5 L1400.7813,61.5 C1401.1406,61.5 1401.3906,61.4688 1401.5313,61.375 C1401.7969,61.2188 1401.9688,60.9219 1401.9688,60.6094 C1401.9688,60.3438 1401.8281,60.0781 1401.5938,59.9063 C1401.4063,59.7656 1401.25,59.7344 1400.7813,59.7344 L1400.4844,59.7344 L1400.8281,58.9375 L1404.7813,58.9375 Z M1404.0156,57.1875 L1401.5625,57.1875 L1402.7969,54.3125 L1404.0156,57.1875 Z " fill="#000000"/><text fill="#000000" font-family="sans-serif" font-size="14" font-style="italic" lengthAdjust="spacing" textLength="39" x="1423.75" y="62.0825">Visitor</text><line style="stroke:#181818;stroke-width:0.5;" x1="1277.5" x2="1576.5" y1="73" y2="73"/><text fill="#000000" font-family="sans-serif" font-size="14" lengthAdjust="spacing" textLength="114" x="1296.5" y="90.1318">Abstract methods:</text><ellipse cx="1287.5" cy="102.6479" fill="#84BE84" rx="3" ry="3" style="stroke:#038048;stroke-width:1.0;"/><text fill="#000000" font-family="sans-serif" font-size="14" font-style="italic" lengthAdjust="spacing" textLength="212" x="1296.5" y="106.2305">void visit_program(Tree program)</text><polygon fill="#FFFF44" points="1287.5,113.7466,1291.5,117.7466,1287.5,121.7466,1283.5,117.7466" style="stroke:#B38D22;stroke-width:1.0;"/><text fill="#000000" font-family="sans-serif" font-size="14" font-style="italic" lengthAdjust="spacing" textLength="181" x="1296.5" y="122.3291">void visit_function(Tree tree)</text><polygon fill="#FFFF44" points="1287.5,129.8452,1291.5,133.8452,1287.5,137.8452,1283.5,133.8452" style="stroke:#B38D22;stroke-width:1.0;"/><text fill="#000000" font-family="sans-serif" font-size="14" font-style="italic" lengthAdjust="spacing" textLength="169" x="1296.5" y="138.4277">void visit_inputs(Tree tree)</text><polygon fill="#FFFF44" points="1287.5,145.9438,1291.5,149.9438,1287.5,153.9438,1283.5,149.9438" style="stroke:#B38D22;stroke-width:1.0;"/><text fill="#000000" font-family="sans-serif" font-size="14" font-style="italic" lengthAdjust="spacing" textLength="178" x="1296.5" y="154.5264">void visit_outputs(Tree tree)</text><polygon fill="#FFFF44" points="1287.5,162.0425,1291.5,166.0425,1287.5,170.0425,1283.5,166.0425" style="stroke:#B38D22;stroke-width:1.0;"/><text fill="#000000" font-family="sans-serif" font-size="14" font-style="italic" lengthAdjust="spacing" textLength="155" x="1296.5" y="170.625">void visit_nop(Tree tree)</text><polygon fill="#FFFF44" points="1287.5,178.1411,1291.5,182.1411,1287.5,186.1411,1283.5,182.1411" style="stroke:#B38D22;stroke-width:1.0;"/><text fill="#000000" font-family="sans-serif" font-size="14" font-style="italic" lengthAdjust="spacing" textLength="210" x="1296.5" y="186.7236">void visit_expr_symbol(Tree tree)</text><polygon fill="#FFFF44" points="1287.5,194.2397,1291.5,198.2397,1287.5,202.2397,1283.5,198.2397" style="stroke:#B38D22;stroke-width:1.0;"/><text fill="#000000" font-family="sans-serif" font-size="14" font-style="italic" lengthAdjust="spacing" textLength="216" x="1296.5" y="202.8223">void visit_expr_variable(Tree tree)</text><polygon fill="#FFFF44" points="1287.5,210.3384,1291.5,214.3384,1287.5,218.3384,1283.5,214.3384" style="stroke:#B38D22;stroke-width:1.0;"/><text fill="#000000" font-family="sans-serif" font-size="14" font-style="italic" lengthAdjust="spacing" textLength="180" x="1296.5" y="218.9209">void visit_expr_nil(Tree tree)</text><polygon fill="#FFFF44" points="1287.5,226.437,1291.5,230.437,1287.5,234.437,1283.5,230.437" style="stroke:#B38D22;stroke-width:1.0;"/><text fill="#000000" font-family="sans-serif" font-size="14" font-style="italic" lengthAdjust="spacing" textLength="262" x="1296.5" y="235.0195">void visit_expr_constructor_list(Tree tree)</text><polygon fill="#FFFF44" points="1287.5,242.5356,1291.5,246.5356,1287.5,250.5356,1283.5,246.5356" style="stroke:#B38D22;stroke-width:1.0;"/><text fill="#000000" font-family="sans-serif" font-size="14" font-style="italic" lengthAdjust="spacing" textLength="275" x="1296.5" y="251.1182">void visit_expr_constructor_cons(Tree tree)</text><polygon fill="#FFFF44" points="1287.5,258.6343,1291.5,262.6343,1287.5,266.6343,1283.5,262.6343" style="stroke:#B38D22;stroke-width:1.0;"/><text fill="#000000" font-family="sans-serif" font-size="14" font-style="italic" lengthAdjust="spacing" textLength="187" x="1296.5" y="267.2168">void visit_expr_call(Tree tree)</text><polygon fill="#FFFF44" points="1287.5,274.7329,1291.5,278.7329,1287.5,282.7329,1283.5,278.7329" style="stroke:#B38D22;stroke-width:1.0;"/><text fill="#000000" font-family="sans-serif" font-size="14" font-style="italic" lengthAdjust="spacing" textLength="221" x="1296.5" y="283.3154">void visit_expr_compare(Tree tree)</text><line style="stroke:#181818;stroke-width:1.0;" x1="1277.5" x2="1576.5" y1="290.2822" y2="290.2822"/><text fill="#000000" font-family="sans-serif" font-size="14" lengthAdjust="spacing" textLength="142" x="1296.5" y="307.4141">Implemented methods:</text><polygon fill="#FFFF44" points="1287.5,314.9302,1291.5,318.9302,1287.5,322.9302,1283.5,318.9302" style="stroke:#B38D22;stroke-width:1.0;"/><text fill="#000000" font-family="sans-serif" font-size="14" lengthAdjust="spacing" textLength="198" x="1296.5" y="323.5127">void visit_expr_head(Tree tree)</text><polygon fill="#FFFF44" points="1287.5,331.0288,1291.5,335.0288,1287.5,339.0288,1283.5,335.0288" style="stroke:#B38D22;stroke-width:1.0;"/><text fill="#000000" font-family="sans-serif" font-size="14" lengthAdjust="spacing" textLength="184" x="1296.5" y="339.6113">void visit_expr_tail(Tree tree)</text><polygon fill="#FFFF44" points="1287.5,347.1274,1291.5,351.1274,1287.5,355.1274,1283.5,351.1274" style="stroke:#B38D22;stroke-width:1.0;"/><text fill="#000000" font-family="sans-serif" font-size="14" lengthAdjust="spacing" textLength="192" x="1296.5" y="355.71">void visit_command(Tree tree)</text><polygon fill="#FFFF44" points="1287.5,363.2261,1291.5,367.2261,1287.5,371.2261,1283.5,367.2261" style="stroke:#B38D22;stroke-width:1.0;"/><text fill="#000000" font-family="sans-serif" font-size="14" lengthAdjust="spacing" textLength="199" x="1296.5" y="371.8086">void visit_commands(Tree tree)</text><polygon fill="#FFFF44" points="1287.5,379.3247,1291.5,383.3247,1287.5,387.3247,1283.5,383.3247" style="stroke:#B38D22;stroke-width:1.0;"/><text fill="#000000" font-family="sans-serif" font-size="14" lengthAdjust="spacing" textLength="199" x="1296.5" y="387.9072">void visit_expression(Tree tree)</text><polygon fill="#FFFF44" points="1287.5,395.4233,1291.5,399.4233,1287.5,403.4233,1283.5,399.4233" style="stroke:#B38D22;stroke-width:1.0;"/><text fill="#000000" font-family="sans-serif" font-size="14" lengthAdjust="spacing" textLength="206" x="1296.5" y="404.0059">void visit_expressions(Tree tree)</text><polygon fill="#FFFF44" points="1287.5,411.522,1291.5,415.522,1287.5,419.522,1283.5,415.522" style="stroke:#B38D22;stroke-width:1.0;"/><text fill="#000000" font-family="sans-serif" font-size="14" lengthAdjust="spacing" textLength="138" x="1296.5" y="420.1045">void visit_if(Tree tree)</text><polygon fill="#FFFF44" points="1287.5,427.6206,1291.5,431.6206,1287.5,435.6206,1283.5,431.6206" style="stroke:#B38D22;stroke-width:1.0;"/><text fill="#000000" font-family="sans-serif" font-size="14" lengthAdjust="spacing" textLength="162" x="1296.5" y="436.2031">void visit_while(Tree tree)</text><polygon fill="#FFFF44" points="1287.5,443.7192,1291.5,447.7192,1287.5,451.7192,1283.5,447.7192" style="stroke:#B38D22;stroke-width:1.0;"/><text fill="#000000" font-family="sans-serif" font-size="14" lengthAdjust="spacing" textLength="148" x="1296.5" y="452.3018">void visit_for(Tree tree)</text><polygon fill="#FFFF44" points="1287.5,459.8179,1291.5,463.8179,1287.5,467.8179,1283.5,463.8179" style="stroke:#B38D22;stroke-width:1.0;"/><text fill="#000000" font-family="sans-serif" font-size="14" lengthAdjust="spacing" textLength="179" x="1296.5" y="468.4004">void visit_foreach(Tree tree)</text></g><!--class TypeVisitor--><g id="elem_TypeVisitor"><rect codeLine="33" fill="#F1F1F1" height="48" id="TypeVisitor" rx="2.5" ry="2.5" style="stroke:#181818;stroke-width:0.5;" width="103" x="1717.5" y="644.62"/><ellipse cx="1732.5" cy="660.62" fill="#ADD1B2" rx="11" ry="11" style="stroke:#181818;stroke-width:1.0;"/><path d="M1727.5,661.7763 C1727.5,664.2763 1729.6406,666.0888 1732.5625,666.0888 C1733.7969,666.0888 1734.9688,665.7919 1735.7188,665.2763 C1736.3281,664.8544 1736.6563,664.4325 1736.6563,664.0263 C1736.6563,663.5575 1736.2344,663.1513 1735.7344,663.1513 C1735.5,663.1513 1735.2813,663.2294 1735.0781,663.4325 C1734.6406,663.87 1734.6406,663.87 1734.4688,663.9638 C1734.0156,664.1981 1733.375,664.3388 1732.6094,664.3388 C1730.6094,664.3388 1729.3281,663.3231 1729.3281,661.745 L1729.3281,660.6981 C1729.3281,658.995 1730.5469,657.7919 1732.25,657.7919 C1732.8281,657.7919 1733.4063,657.9325 1733.875,658.1825 C1734.3438,658.4481 1734.5156,658.6356 1734.5781,658.995 C1734.7031,659.6669 1734.9531,659.9169 1735.4844,659.9169 C1735.7656,659.9169 1736.0469,659.7763 1736.2344,659.5575 C1736.3594,659.3856 1736.4063,659.2138 1736.4063,658.7763 L1736.4063,657.4169 C1736.4063,656.995 1736.3906,656.8544 1736.2656,656.6825 C1736.0938,656.4325 1735.8125,656.2763 1735.4844,656.2763 C1735.1719,656.2763 1734.9688,656.3856 1734.75,656.6513 C1733.5781,656.1513 1733.1406,656.0419 1732.1875,656.0419 C1729.5156,656.0419 1727.5,658.0575 1727.5,660.6825 L1727.5,661.7763 Z " fill="#000000"/><text fill="#000000" font-family="sans-serif" font-size="14" lengthAdjust="spacing" textLength="71" x="1746.5" y="665.7025">TypeVisitor</text><line style="stroke:#181818;stroke-width:0.5;" x1="1718.5" x2="1819.5" y1="676.62" y2="676.62"/><line style="stroke:#181818;stroke-width:0.5;" x1="1718.5" x2="1819.5" y1="684.62" y2="684.62"/></g><!--class SymbolTable--><g id="elem_SymbolTable"><rect codeLine="38" fill="#F1F1F1" height="144.5918" id="SymbolTable" rx="2.5" ry="2.5" style="stroke:#181818;stroke-width:0.5;" width="319" x="46.5" y="1011.15"/><ellipse cx="160.75" cy="1027.15" fill="#ADD1B2" rx="11" ry="11" style="stroke:#181818;stroke-width:1.0;"/><path d="M155.75,1028.3063 C155.75,1030.8063 157.8906,1032.6188 160.8125,1032.6188 C162.0469,1032.6188 163.2188,1032.3219 163.9688,1031.8063 C164.5781,1031.3844 164.9063,1030.9625 164.9063,1030.5563 C164.9063,1030.0875 164.4844,1029.6813 163.9844,1029.6813 C163.75,1029.6813 163.5313,1029.7594 163.3281,1029.9625 C162.8906,1030.4 162.8906,1030.4 162.7188,1030.4938 C162.2656,1030.7281 161.625,1030.8688 160.8594,1030.8688 C158.8594,1030.8688 157.5781,1029.8531 157.5781,1028.275 L157.5781,1027.2281 C157.5781,1025.525 158.7969,1024.3219 160.5,1024.3219 C161.0781,1024.3219 161.6563,1024.4625 162.125,1024.7125 C162.5938,1024.9781 162.7656,1025.1656 162.8281,1025.525 C162.9531,1026.1969 163.2031,1026.4469 163.7344,1026.4469 C164.0156,1026.4469 164.2969,1026.3063 164.4844,1026.0875 C164.6094,1025.9156 164.6563,1025.7438 164.6563,1025.3063 L164.6563,1023.9469 C164.6563,1023.525 164.6406,1023.3844 164.5156,1023.2125 C164.3438,1022.9625 164.0625,1022.8063 163.7344,1022.8063 C163.4219,1022.8063 163.2188,1022.9156 163,1023.1813 C161.8281,1022.6813 161.3906,1022.5719 160.4375,1022.5719 C157.7656,1022.5719 155.75,1024.5875 155.75,1027.2125 L155.75,1028.3063 Z " fill="#000000"/><text fill="#000000" font-family="sans-serif" font-size="14" lengthAdjust="spacing" textLength="82" x="181.25" y="1032.2325">SymbolTable</text><line style="stroke:#181818;stroke-width:0.5;" x1="47.5" x2="364.5" y1="1043.15" y2="1043.15"/><rect fill="none" height="6" style="stroke:#C82930;stroke-width:1.0;" width="6" x="54.5" y="1053.6993"/><text fill="#000000" font-family="sans-serif" font-size="14" lengthAdjust="spacing" textLength="257" x="66.5" y="1060.2818">Stack&lt;Map&lt;String, SymbolInfo&gt;&gt; scopes</text><line style="stroke:#181818;stroke-width:0.5;" x1="47.5" x2="364.5" y1="1067.2486" y2="1067.2486"/><ellipse cx="57.5" cy="1080.7979" fill="#84BE84" rx="3" ry="3" style="stroke:#038048;stroke-width:1.0;"/><text fill="#000000" font-family="sans-serif" font-size="14" lengthAdjust="spacing" textLength="115" x="66.5" y="1084.3805">void beginScope()</text><ellipse cx="57.5" cy="1096.8966" fill="#84BE84" rx="3" ry="3" style="stroke:#038048;stroke-width:1.0;"/><text fill="#000000" font-family="sans-serif" font-size="14" lengthAdjust="spacing" textLength="104" x="66.5" y="1100.4791">void endScope()</text><ellipse cx="57.5" cy="1112.9952" fill="#84BE84" rx="3" ry="3" style="stroke:#038048;stroke-width:1.0;"/><text fill="#000000" font-family="sans-serif" font-size="14" lengthAdjust="spacing" textLength="293" x="66.5" y="1116.5777">void put(String symbol, SymbolInfo symbolInfo)</text><ellipse cx="57.5" cy="1129.0938" fill="#84BE84" rx="3" ry="3" style="stroke:#038048;stroke-width:1.0;"/><text fill="#000000" font-family="sans-serif" font-size="14" lengthAdjust="spacing" textLength="201" x="66.5" y="1132.6764">boolean inScope(String symbol)</text><ellipse cx="57.5" cy="1145.1925" fill="#84BE84" rx="3" ry="3" style="stroke:#038048;stroke-width:1.0;"/><text fill="#000000" font-family="sans-serif" font-size="14" lengthAdjust="spacing" textLength="100" x="66.5" y="1148.775">String toString()</text></g><!--class SymbolInfo--><g id="elem_SymbolInfo"><rect codeLine="48" fill="#F1F1F1" height="128.4932" id="SymbolInfo" rx="2.5" ry="2.5" style="stroke:#181818;stroke-width:0.5;" width="147" x="400.5" y="1019.19"/><ellipse cx="436.2" cy="1035.19" fill="#ADD1B2" rx="11" ry="11" style="stroke:#181818;stroke-width:1.0;"/><path d="M431.2,1036.3463 C431.2,1038.8463 433.3406,1040.6588 436.2625,1040.6588 C437.4969,1040.6588 438.6688,1040.3619 439.4188,1039.8463 C440.0281,1039.4244 440.3563,1039.0025 440.3563,1038.5963 C440.3563,1038.1275 439.9344,1037.7213 439.4344,1037.7213 C439.2,1037.7213 438.9813,1037.7994 438.7781,1038.0025 C438.3406,1038.44 438.3406,1038.44 438.1688,1038.5338 C437.7156,1038.7681 437.075,1038.9088 436.3094,1038.9088 C434.3094,1038.9088 433.0281,1037.8931 433.0281,1036.315 L433.0281,1035.2681 C433.0281,1033.565 434.2469,1032.3619 435.95,1032.3619 C436.5281,1032.3619 437.1063,1032.5025 437.575,1032.7525 C438.0438,1033.0181 438.2156,1033.2056 438.2781,1033.565 C438.4031,1034.2369 438.6531,1034.4869 439.1844,1034.4869 C439.4656,1034.4869 439.7469,1034.3463 439.9344,1034.1275 C440.0594,1033.9556 440.1063,1033.7838 440.1063,1033.3463 L440.1063,1031.9869 C440.1063,1031.565 440.0906,1031.4244 439.9656,1031.2525 C439.7938,1031.0025 439.5125,1030.8463 439.1844,1030.8463 C438.8719,1030.8463 438.6688,1030.9556 438.45,1031.2213 C437.2781,1030.7213 436.8406,1030.6119 435.8875,1030.6119 C433.2156,1030.6119 431.2,1032.6275 431.2,1035.2525 L431.2,1036.3463 Z " fill="#000000"/><text fill="#000000" font-family="sans-serif" font-size="14" lengthAdjust="spacing" textLength="69" x="454.8" y="1040.2725">SymbolInfo</text><line style="stroke:#181818;stroke-width:0.5;" x1="401.5" x2="546.5" y1="1051.19" y2="1051.19"/><rect fill="none" height="6" style="stroke:#C82930;stroke-width:1.0;" width="6" x="408.5" y="1061.7393"/><text fill="#000000" font-family="sans-serif" font-size="14" lengthAdjust="spacing" textLength="41" x="420.5" y="1068.3218">int line</text><rect fill="none" height="6" style="stroke:#C82930;stroke-width:1.0;" width="6" x="408.5" y="1077.8379"/><text fill="#000000" font-family="sans-serif" font-size="14" lengthAdjust="spacing" textLength="64" x="420.5" y="1084.4205">int column</text><rect fill="none" height="6" style="stroke:#C82930;stroke-width:1.0;" width="6" x="408.5" y="1093.9366"/><text fill="#000000" font-family="sans-serif" font-size="14" lengthAdjust="spacing" textLength="88" x="420.5" y="1100.5191">String content</text><text fill="#000000" font-family="sans-serif" font-size="14" lengthAdjust="spacing" textLength="4" x="420.5" y="1116.6177">&#160;</text><line style="stroke:#181818;stroke-width:1.0;" x1="401.5" x2="546.5" y1="1123.5845" y2="1123.5845"/><text fill="#000000" font-family="sans-serif" font-size="14" lengthAdjust="spacing" textLength="135" x="406.5" y="1140.7164">... getters and setters</text></g><!--class SymbolsVisitor--><g id="elem_SymbolsVisitor"><rect codeLine="58" fill="#F1F1F1" height="64.0986" id="SymbolsVisitor" rx="2.5" ry="2.5" style="stroke:#181818;stroke-width:0.5;" width="190" x="296" y="636.57"/><ellipse cx="340.75" cy="652.57" fill="#ADD1B2" rx="11" ry="11" style="stroke:#181818;stroke-width:1.0;"/><path d="M335.75,653.7262 C335.75,656.2262 337.8906,658.0387 340.8125,658.0387 C342.0469,658.0387 343.2188,657.7419 343.9688,657.2262 C344.5781,656.8044 344.9063,656.3825 344.9063,655.9762 C344.9063,655.5075 344.4844,655.1012 343.9844,655.1012 C343.75,655.1012 343.5313,655.1794 343.3281,655.3825 C342.8906,655.82 342.8906,655.82 342.7188,655.9137 C342.2656,656.1481 341.625,656.2887 340.8594,656.2887 C338.8594,656.2887 337.5781,655.2731 337.5781,653.695 L337.5781,652.6481 C337.5781,650.945 338.7969,649.7419 340.5,649.7419 C341.0781,649.7419 341.6563,649.8825 342.125,650.1325 C342.5938,650.3981 342.7656,650.5856 342.8281,650.945 C342.9531,651.6169 343.2031,651.8669 343.7344,651.8669 C344.0156,651.8669 344.2969,651.7262 344.4844,651.5075 C344.6094,651.3356 344.6563,651.1637 344.6563,650.7262 L344.6563,649.3669 C344.6563,648.945 344.6406,648.8044 344.5156,648.6325 C344.3438,648.3825 344.0625,648.2262 343.7344,648.2262 C343.4219,648.2262 343.2188,648.3356 343,648.6012 C341.8281,648.1012 341.3906,647.9919 340.4375,647.9919 C337.7656,647.9919 335.75,650.0075 335.75,652.6325 L335.75,653.7262 Z " fill="#000000"/><text fill="#000000" font-family="sans-serif" font-size="14" lengthAdjust="spacing" textLength="92" x="361.25" y="657.6525">SymbolsVisitor</text><line style="stroke:#181818;stroke-width:0.5;" x1="297" x2="485" y1="668.57" y2="668.57"/><rect fill="none" height="6" style="stroke:#C82930;stroke-width:1.0;" width="6" x="304" y="679.1193"/><text fill="#000000" font-family="sans-serif" font-size="14" lengthAdjust="spacing" textLength="164" x="316" y="685.7018">SymbolTable lookupTable</text><line style="stroke:#181818;stroke-width:0.5;" x1="297" x2="485" y1="692.6686" y2="692.6686"/></g><!--class IntermediateCodeVisitor--><g id="elem_IntermediateCodeVisitor"><rect codeLine="68" fill="#F1F1F1" height="48" id="IntermediateCodeVisitor" rx="2.5" ry="2.5" style="stroke:#181818;stroke-width:0.5;" width="183" x="1335.5" y="644.62"/><ellipse cx="1350.5" cy="660.62" fill="#ADD1B2" rx="11" ry="11" style="stroke:#181818;stroke-width:1.0;"/><path d="M1345.5,661.7763 C1345.5,664.2763 1347.6406,666.0888 1350.5625,666.0888 C1351.7969,666.0888 1352.9688,665.7919 1353.7188,665.2763 C1354.3281,664.8544 1354.6563,664.4325 1354.6563,664.0263 C1354.6563,663.5575 1354.2344,663.1513 1353.7344,663.1513 C1353.5,663.1513 1353.2813,663.2294 1353.0781,663.4325 C1352.6406,663.87 1352.6406,663.87 1352.4688,663.9638 C1352.0156,664.1981 1351.375,664.3388 1350.6094,664.3388 C1348.6094,664.3388 1347.3281,663.3231 1347.3281,661.745 L1347.3281,660.6981 C1347.3281,658.995 1348.5469,657.7919 1350.25,657.7919 C1350.8281,657.7919 1351.4063,657.9325 1351.875,658.1825 C1352.3438,658.4481 1352.5156,658.6356 1352.5781,658.995 C1352.7031,659.6669 1352.9531,659.9169 1353.4844,659.9169 C1353.7656,659.9169 1354.0469,659.7763 1354.2344,659.5575 C1354.3594,659.3856 1354.4063,659.2138 1354.4063,658.7763 L1354.4063,657.4169 C1354.4063,656.995 1354.3906,656.8544 1354.2656,656.6825 C1354.0938,656.4325 1353.8125,656.2763 1353.4844,656.2763 C1353.1719,656.2763 1352.9688,656.3856 1352.75,656.6513 C1351.5781,656.1513 1351.1406,656.0419 1350.1875,656.0419 C1347.5156,656.0419 1345.5,658.0575 1345.5,660.6825 L1345.5,661.7763 Z " fill="#000000"/><text fill="#000000" font-family="sans-serif" font-size="14" lengthAdjust="spacing" textLength="151" x="1364.5" y="665.7025">IntermediateCodeVisitor</text><line style="stroke:#181818;stroke-width:0.5;" x1="1336.5" x2="1517.5" y1="676.62" y2="676.62"/><line style="stroke:#181818;stroke-width:0.5;" x1="1336.5" x2="1517.5" y1="684.62" y2="684.62"/></g><!--class IntermediateFunction--><g id="elem_IntermediateFunction"><rect codeLine="70" fill="#F1F1F1" height="571.1563" id="IntermediateFunction" rx="2.5" ry="2.5" style="stroke:#181818;stroke-width:0.5;" width="468" x="1193" y="797.86"/><ellipse cx="1356.25" cy="813.86" fill="#ADD1B2" rx="11" ry="11" style="stroke:#181818;stroke-width:1.0;"/><path d="M1351.25,815.0163 C1351.25,817.5163 1353.3906,819.3288 1356.3125,819.3288 C1357.5469,819.3288 1358.7188,819.0319 1359.4688,818.5163 C1360.0781,818.0944 1360.4063,817.6725 1360.4063,817.2663 C1360.4063,816.7975 1359.9844,816.3913 1359.4844,816.3913 C1359.25,816.3913 1359.0313,816.4694 1358.8281,816.6725 C1358.3906,817.11 1358.3906,817.11 1358.2188,817.2038 C1357.7656,817.4381 1357.125,817.5788 1356.3594,817.5788 C1354.3594,817.5788 1353.0781,816.5631 1353.0781,814.985 L1353.0781,813.9381 C1353.0781,812.235 1354.2969,811.0319 1356,811.0319 C1356.5781,811.0319 1357.1563,811.1725 1357.625,811.4225 C1358.0938,811.6881 1358.2656,811.8756 1358.3281,812.235 C1358.4531,812.9069 1358.7031,813.1569 1359.2344,813.1569 C1359.5156,813.1569 1359.7969,813.0163 1359.9844,812.7975 C1360.1094,812.6256 1360.1563,812.4538 1360.1563,812.0163 L1360.1563,810.6569 C1360.1563,810.235 1360.1406,810.0944 1360.0156,809.9225 C1359.8438,809.6725 1359.5625,809.5163 1359.2344,809.5163 C1358.9219,809.5163 1358.7188,809.6256 1358.5,809.8913 C1357.3281,809.3913 1356.8906,809.2819 1355.9375,809.2819 C1353.2656,809.2819 1351.25,811.2975 1351.25,813.9225 L1351.25,815.0163 Z " fill="#000000"/><text fill="#000000" font-family="sans-serif" font-size="14" lengthAdjust="spacing" textLength="133" x="1376.75" y="818.9425">IntermediateFunction</text><line style="stroke:#181818;stroke-width:0.5;" x1="1194" x2="1660" y1="829.86" y2="829.86"/><rect fill="none" height="6" style="stroke:#C82930;stroke-width:1.0;" width="6" x="1201" y="840.4093"/><text fill="#000000" font-family="sans-serif" font-size="14" lengthAdjust="spacing" textLength="213" x="1213" y="846.9918">ArrayList&lt;Instruction&gt; instructions</text><rect fill="none" height="6" style="stroke:#C82930;stroke-width:1.0;" width="6" x="1201" y="856.5079"/><text fill="#000000" font-family="sans-serif" font-size="14" lengthAdjust="spacing" textLength="289" x="1213" y="863.0905">HashMap&lt;Integer, String&gt; addressToRegister</text><rect fill="none" height="6" style="stroke:#C82930;stroke-width:1.0;" width="6" x="1201" y="872.6066"/><text fill="#000000" font-family="sans-serif" font-size="14" lengthAdjust="spacing" textLength="186" x="1213" y="879.1891">ArrayList&lt;String&gt; inputsLabel</text><rect fill="none" height="6" style="stroke:#C82930;stroke-width:1.0;" width="6" x="1201" y="888.7052"/><text fill="#000000" font-family="sans-serif" font-size="14" lengthAdjust="spacing" textLength="186" x="1213" y="895.2877">ArrayList&lt;String&gt; inputsLabel</text><rect fill="none" height="6" style="stroke:#C82930;stroke-width:1.0;" width="6" x="1201" y="904.8038"/><text fill="#000000" font-family="sans-serif" font-size="14" lengthAdjust="spacing" textLength="195" x="1213" y="911.3864">ArrayList&lt;String&gt; outputsLabel</text><rect fill="none" height="6" style="stroke:#C82930;stroke-width:1.0;" width="6" x="1201" y="920.9025"/><text fill="#000000" font-family="sans-serif" font-size="14" lengthAdjust="spacing" textLength="139" x="1213" y="927.485">boolean isSTD = false</text><text fill="#000000" font-family="sans-serif" font-size="14" lengthAdjust="spacing" textLength="4" x="1213" y="943.5836">&#160;</text><line style="stroke:#181818;stroke-width:1.0;" x1="1194" x2="1660" y1="950.5504" y2="950.5504"/><text fill="#000000" font-family="sans-serif" font-size="14" lengthAdjust="spacing" textLength="131" x="1199" y="967.6823">getters and setters...</text><line style="stroke:#181818;stroke-width:1.0;" x1="1194" x2="1660" y1="974.6491" y2="974.6491"/><ellipse cx="1204" cy="988.1984" fill="#84BE84" rx="3" ry="3" style="stroke:#038048;stroke-width:1.0;"/><text fill="#000000" font-family="sans-serif" font-size="14" lengthAdjust="spacing" textLength="198" x="1213" y="991.7809">String createGoto(String Label)</text><ellipse cx="1204" cy="1004.297" fill="#84BE84" rx="3" ry="3" style="stroke:#038048;stroke-width:1.0;"/><text fill="#000000" font-family="sans-serif" font-size="14" lengthAdjust="spacing" textLength="126" x="1213" y="1007.8795">String createLabel()</text><ellipse cx="1204" cy="1020.3956" fill="#84BE84" rx="3" ry="3" style="stroke:#038048;stroke-width:1.0;"/><text fill="#000000" font-family="sans-serif" font-size="14" lengthAdjust="spacing" textLength="187" x="1213" y="1023.9782">String createIf(String register)</text><ellipse cx="1204" cy="1036.4943" fill="#84BE84" rx="3" ry="3" style="stroke:#038048;stroke-width:1.0;"/><text fill="#000000" font-family="sans-serif" font-size="14" lengthAdjust="spacing" textLength="207" x="1213" y="1040.0768">String createIfnot(String register)</text><ellipse cx="1204" cy="1052.5929" fill="#84BE84" rx="3" ry="3" style="stroke:#038048;stroke-width:1.0;"/><text fill="#000000" font-family="sans-serif" font-size="14" lengthAdjust="spacing" textLength="196" x="1213" y="1056.1754">void createIfnot(String register)</text><ellipse cx="1204" cy="1068.6915" fill="#84BE84" rx="3" ry="3" style="stroke:#038048;stroke-width:1.0;"/><text fill="#000000" font-family="sans-serif" font-size="14" lengthAdjust="spacing" textLength="163" x="1213" y="1072.2741">void createOpenContext()</text><ellipse cx="1204" cy="1084.7902" fill="#84BE84" rx="3" ry="3" style="stroke:#038048;stroke-width:1.0;"/><text fill="#000000" font-family="sans-serif" font-size="14" lengthAdjust="spacing" textLength="164" x="1213" y="1088.3727">void createCloseContext()</text><ellipse cx="1204" cy="1100.8888" fill="#84BE84" rx="3" ry="3" style="stroke:#038048;stroke-width:1.0;"/><text fill="#000000" font-family="sans-serif" font-size="14" lengthAdjust="spacing" textLength="203" x="1213" y="1104.4713">String createDefine(String label)</text><ellipse cx="1204" cy="1116.9874" fill="#84BE84" rx="3" ry="3" style="stroke:#038048;stroke-width:1.0;"/><text fill="#000000" font-family="sans-serif" font-size="14" lengthAdjust="spacing" textLength="132" x="1213" y="1120.57">String createDefine()</text><ellipse cx="1204" cy="1133.0861" fill="#84BE84" rx="3" ry="3" style="stroke:#038048;stroke-width:1.0;"/><text fill="#000000" font-family="sans-serif" font-size="14" lengthAdjust="spacing" textLength="212" x="1213" y="1136.6686">String createSymbol(String value)</text><ellipse cx="1204" cy="1149.1847" fill="#84BE84" rx="3" ry="3" style="stroke:#038048;stroke-width:1.0;"/><text fill="#000000" font-family="sans-serif" font-size="14" lengthAdjust="spacing" textLength="167" x="1213" y="1152.7672">String setRef(String value)</text><ellipse cx="1204" cy="1165.2833" fill="#84BE84" rx="3" ry="3" style="stroke:#038048;stroke-width:1.0;"/><text fill="#000000" font-family="sans-serif" font-size="14" lengthAdjust="spacing" textLength="286" x="1213" y="1168.8659">String createDefine(String label, String value)</text><ellipse cx="1204" cy="1181.382" fill="#84BE84" rx="3" ry="3" style="stroke:#038048;stroke-width:1.0;"/><text fill="#000000" font-family="sans-serif" font-size="14" lengthAdjust="spacing" textLength="287" x="1213" y="1184.9645">void createMov(String register, String source)</text><ellipse cx="1204" cy="1197.4806" fill="#84BE84" rx="3" ry="3" style="stroke:#038048;stroke-width:1.0;"/><text fill="#000000" font-family="sans-serif" font-size="14" lengthAdjust="spacing" textLength="315" x="1213" y="1201.0631">void createSetHead(String register, String source)</text><ellipse cx="1204" cy="1213.5792" fill="#84BE84" rx="3" ry="3" style="stroke:#038048;stroke-width:1.0;"/><text fill="#000000" font-family="sans-serif" font-size="14" lengthAdjust="spacing" textLength="305" x="1213" y="1217.1618">void createSetTail(String register, String source)</text><ellipse cx="1204" cy="1229.6779" fill="#84BE84" rx="3" ry="3" style="stroke:#038048;stroke-width:1.0;"/><text fill="#000000" font-family="sans-serif" font-size="14" lengthAdjust="spacing" textLength="296" x="1213" y="1233.2604">void createGetHead(String source, String dest)</text><ellipse cx="1204" cy="1245.7765" fill="#84BE84" rx="3" ry="3" style="stroke:#038048;stroke-width:1.0;"/><text fill="#000000" font-family="sans-serif" font-size="14" lengthAdjust="spacing" textLength="286" x="1213" y="1249.359">void createGetTail(String source, String dest)</text><ellipse cx="1204" cy="1261.8751" fill="#84BE84" rx="3" ry="3" style="stroke:#038048;stroke-width:1.0;"/><text fill="#000000" font-family="sans-serif" font-size="14" lengthAdjust="spacing" textLength="166" x="1213" y="1265.4577">void addInput(String label)</text><ellipse cx="1204" cy="1277.9738" fill="#84BE84" rx="3" ry="3" style="stroke:#038048;stroke-width:1.0;"/><text fill="#000000" font-family="sans-serif" font-size="14" lengthAdjust="spacing" textLength="178" x="1213" y="1281.5563">void addOutput(String label)</text><ellipse cx="1204" cy="1294.0724" fill="#84BE84" rx="3" ry="3" style="stroke:#038048;stroke-width:1.0;"/><text fill="#000000" font-family="sans-serif" font-size="14" lengthAdjust="spacing" textLength="442" x="1213" y="1297.6549">createCall(IntermediateFunction function, int[] retours, int[] addresses)</text><ellipse cx="1204" cy="1310.171" fill="#84BE84" rx="3" ry="3" style="stroke:#038048;stroke-width:1.0;"/><text fill="#000000" font-family="sans-serif" font-size="14" lengthAdjust="spacing" textLength="248" x="1213" y="1313.7536">void createInc(String register, int value)</text><ellipse cx="1204" cy="1326.2697" fill="#84BE84" rx="3" ry="3" style="stroke:#038048;stroke-width:1.0;"/><text fill="#000000" font-family="sans-serif" font-size="14" lengthAdjust="spacing" textLength="255" x="1213" y="1329.8522">void createDec(String register, int value)</text><ellipse cx="1204" cy="1342.3683" fill="#84BE84" rx="3" ry="3" style="stroke:#038048;stroke-width:1.0;"/><text fill="#000000" font-family="sans-serif" font-size="14" lengthAdjust="spacing" textLength="150" x="1213" y="1345.9508">String toCppSignature()</text><ellipse cx="1204" cy="1358.4669" fill="#84BE84" rx="3" ry="3" style="stroke:#038048;stroke-width:1.0;"/><text fill="#000000" font-family="sans-serif" font-size="14" lengthAdjust="spacing" textLength="89" x="1213" y="1362.0495">String toCpp()</text></g><!--class Instruction--><g id="elem_Instruction"><rect codeLine="108" fill="#F1F1F1" height="136.4932" id="Instruction" rx="2.5" ry="2.5" style="stroke:#181818;stroke-width:0.5;" width="143" x="827.5" y="600.37"/><ellipse cx="863.2" cy="616.37" fill="#A9DCDF" rx="11" ry="11" style="stroke:#181818;stroke-width:1.0;"/><path d="M864.7313,618.3075 L865.0594,619.1044 L864.7781,619.1044 C864.325,619.1044 864.2,619.1356 864.0281,619.245 C863.7469,619.3856 863.575,619.6825 863.575,619.9794 C863.575,620.2763 863.7156,620.5263 863.95,620.6981 C864.1219,620.8231 864.3563,620.87 864.7781,620.87 L867.1375,620.87 C867.4969,620.87 867.7469,620.8388 867.8875,620.745 C868.1531,620.6044 868.325,620.2919 868.325,619.9794 C868.325,619.7138 868.1844,619.4481 867.95,619.2763 C867.7625,619.1513 867.6063,619.12 867.1531,619.1044 L863.7625,611.2763 L860.0438,611.2763 C859.5906,611.2763 859.45,611.2919 859.2781,611.4013 C859.0125,611.5731 858.8406,611.8544 858.8406,612.1513 C858.8406,612.4325 858.9813,612.6981 859.2313,612.87 C859.4031,612.995 859.5906,613.0263 860.0438,613.0263 L861.0125,613.0263 L858.4344,619.1044 C857.6844,619.1044 857.2781,619.4013 857.2781,619.9794 C857.2781,620.5888 857.6688,620.87 858.4656,620.87 L860.7313,620.87 C861.0906,620.87 861.3406,620.8388 861.4813,620.745 C861.7469,620.5888 861.9188,620.2919 861.9188,619.9794 C861.9188,619.7138 861.7781,619.4481 861.5438,619.2763 C861.3563,619.1356 861.2,619.1044 860.7313,619.1044 L860.4344,619.1044 L860.7781,618.3075 L864.7313,618.3075 Z M863.9656,616.5575 L861.5125,616.5575 L862.7469,613.6825 L863.9656,616.5575 Z " fill="#000000"/><text fill="#000000" font-family="sans-serif" font-size="14" font-style="italic" lengthAdjust="spacing" textLength="65" x="881.8" y="621.4525">Instruction</text><line style="stroke:#181818;stroke-width:0.5;" x1="828.5" x2="969.5" y1="632.37" y2="632.37"/><rect fill="none" height="6" style="stroke:#C82930;stroke-width:1.0;" width="6" x="835.5" y="642.9193"/><text fill="#000000" font-family="sans-serif" font-size="14" lengthAdjust="spacing" textLength="70" x="847.5" y="649.5018">String arg1</text><rect fill="none" height="6" style="stroke:#C82930;stroke-width:1.0;" width="6" x="835.5" y="659.0179"/><text fill="#000000" font-family="sans-serif" font-size="14" lengthAdjust="spacing" textLength="62" x="847.5" y="665.6005">String ar2</text><line style="stroke:#181818;stroke-width:1.0;" x1="828.5" x2="969.5" y1="672.5673" y2="672.5673"/><text fill="#000000" font-family="sans-serif" font-size="14" lengthAdjust="spacing" textLength="131" x="833.5" y="689.6991">getters and setters...</text><line style="stroke:#181818;stroke-width:1.0;" x1="828.5" x2="969.5" y1="696.6659" y2="696.6659"/><text fill="#000000" font-family="sans-serif" font-size="14" lengthAdjust="spacing" textLength="100" x="833.5" y="713.7977">String toString()</text><text fill="#000000" font-family="sans-serif" font-size="14" lengthAdjust="spacing" textLength="89" x="833.5" y="729.8964">String toCpp()</text></g><!--class Call--><g id="elem_Call"><rect codeLine="118" fill="#F1F1F1" height="48" id="Call" rx="2.5" ry="2.5" style="stroke:#181818;stroke-width:0.5;" width="56" x="628" y="1059.44"/><ellipse cx="643" cy="1075.44" fill="#ADD1B2" rx="11" ry="11" style="stroke:#181818;stroke-width:1.0;"/><path d="M638,1076.5963 C638,1079.0963 640.1406,1080.9088 643.0625,1080.9088 C644.2969,1080.9088 645.4688,1080.6119 646.2188,1080.0963 C646.8281,1079.6744 647.1563,1079.2525 647.1563,1078.8463 C647.1563,1078.3775 646.7344,1077.9713 646.2344,1077.9713 C646,1077.9713 645.7813,1078.0494 645.5781,1078.2525 C645.1406,1078.69 645.1406,1078.69 644.9688,1078.7838 C644.5156,1079.0181 643.875,1079.1588 643.1094,1079.1588 C641.1094,1079.1588 639.8281,1078.1431 639.8281,1076.565 L639.8281,1075.5181 C639.8281,1073.815 641.0469,1072.6119 642.75,1072.6119 C643.3281,1072.6119 643.9063,1072.7525 644.375,1073.0025 C644.8438,1073.2681 645.0156,1073.4556 645.0781,1073.815 C645.2031,1074.4869 645.4531,1074.7369 645.9844,1074.7369 C646.2656,1074.7369 646.5469,1074.5963 646.7344,1074.3775 C646.8594,1074.2056 646.9063,1074.0338 646.9063,1073.5963 L646.9063,1072.2369 C646.9063,1071.815 646.8906,1071.6744 646.7656,1071.5025 C646.5938,1071.2525 646.3125,1071.0963 645.9844,1071.0963 C645.6719,1071.0963 645.4688,1071.2056 645.25,1071.4713 C644.0781,1070.9713 643.6406,1070.8619 642.6875,1070.8619 C640.0156,1070.8619 638,1072.8775 638,1075.5025 L638,1076.5963 Z " fill="#000000"/><text fill="#000000" font-family="sans-serif" font-size="14" lengthAdjust="spacing" textLength="24" x="657" y="1080.5225">Call</text><line style="stroke:#181818;stroke-width:0.5;" x1="629" x2="683" y1="1091.44" y2="1091.44"/><line style="stroke:#181818;stroke-width:0.5;" x1="629" x2="683" y1="1099.44" y2="1099.44"/></g><!--class CloseContext--><g id="elem_CloseContext"><rect codeLine="122" fill="#F1F1F1" height="48" id="CloseContext" rx="2.5" ry="2.5" style="stroke:#181818;stroke-width:0.5;" width="116" x="719" y="1059.44"/><ellipse cx="734" cy="1075.44" fill="#ADD1B2" rx="11" ry="11" style="stroke:#181818;stroke-width:1.0;"/><path d="M729,1076.5963 C729,1079.0963 731.1406,1080.9088 734.0625,1080.9088 C735.2969,1080.9088 736.4688,1080.6119 737.2188,1080.0963 C737.8281,1079.6744 738.1563,1079.2525 738.1563,1078.8463 C738.1563,1078.3775 737.7344,1077.9713 737.2344,1077.9713 C737,1077.9713 736.7813,1078.0494 736.5781,1078.2525 C736.1406,1078.69 736.1406,1078.69 735.9688,1078.7838 C735.5156,1079.0181 734.875,1079.1588 734.1094,1079.1588 C732.1094,1079.1588 730.8281,1078.1431 730.8281,1076.565 L730.8281,1075.5181 C730.8281,1073.815 732.0469,1072.6119 733.75,1072.6119 C734.3281,1072.6119 734.9063,1072.7525 735.375,1073.0025 C735.8438,1073.2681 736.0156,1073.4556 736.0781,1073.815 C736.2031,1074.4869 736.4531,1074.7369 736.9844,1074.7369 C737.2656,1074.7369 737.5469,1074.5963 737.7344,1074.3775 C737.8594,1074.2056 737.9063,1074.0338 737.9063,1073.5963 L737.9063,1072.2369 C737.9063,1071.815 737.8906,1071.6744 737.7656,1071.5025 C737.5938,1071.2525 737.3125,1071.0963 736.9844,1071.0963 C736.6719,1071.0963 736.4688,1071.2056 736.25,1071.4713 C735.0781,1070.9713 734.6406,1070.8619 733.6875,1070.8619 C731.0156,1070.8619 729,1072.8775 729,1075.5025 L729,1076.5963 Z " fill="#000000"/><text fill="#000000" font-family="sans-serif" font-size="14" lengthAdjust="spacing" textLength="84" x="748" y="1080.5225">CloseContext</text><line style="stroke:#181818;stroke-width:0.5;" x1="720" x2="834" y1="1091.44" y2="1091.44"/><line style="stroke:#181818;stroke-width:0.5;" x1="720" x2="834" y1="1099.44" y2="1099.44"/></g><!--class Dec--><g id="elem_Dec"><rect codeLine="126" fill="#F1F1F1" height="48" id="Dec" rx="2.5" ry="2.5" style="stroke:#181818;stroke-width:0.5;" width="57" x="870.5" y="1059.44"/><ellipse cx="885.5" cy="1075.44" fill="#ADD1B2" rx="11" ry="11" style="stroke:#181818;stroke-width:1.0;"/><path d="M880.5,1076.5963 C880.5,1079.0963 882.6406,1080.9088 885.5625,1080.9088 C886.7969,1080.9088 887.9688,1080.6119 888.7188,1080.0963 C889.3281,1079.6744 889.6563,1079.2525 889.6563,1078.8463 C889.6563,1078.3775 889.2344,1077.9713 888.7344,1077.9713 C888.5,1077.9713 888.2813,1078.0494 888.0781,1078.2525 C887.6406,1078.69 887.6406,1078.69 887.4688,1078.7838 C887.0156,1079.0181 886.375,1079.1588 885.6094,1079.1588 C883.6094,1079.1588 882.3281,1078.1431 882.3281,1076.565 L882.3281,1075.5181 C882.3281,1073.815 883.5469,1072.6119 885.25,1072.6119 C885.8281,1072.6119 886.4063,1072.7525 886.875,1073.0025 C887.3438,1073.2681 887.5156,1073.4556 887.5781,1073.815 C887.7031,1074.4869 887.9531,1074.7369 888.4844,1074.7369 C888.7656,1074.7369 889.0469,1074.5963 889.2344,1074.3775 C889.3594,1074.2056 889.4063,1074.0338 889.4063,1073.5963 L889.4063,1072.2369 C889.4063,1071.815 889.3906,1071.6744 889.2656,1071.5025 C889.0938,1071.2525 888.8125,1071.0963 888.4844,1071.0963 C888.1719,1071.0963 887.9688,1071.2056 887.75,1071.4713 C886.5781,1070.9713 886.1406,1070.8619 885.1875,1070.8619 C882.5156,1070.8619 880.5,1072.8775 880.5,1075.5025 L880.5,1076.5963 Z " fill="#000000"/><text fill="#000000" font-family="sans-serif" font-size="14" lengthAdjust="spacing" textLength="25" x="899.5" y="1080.5225">Dec</text><line style="stroke:#181818;stroke-width:0.5;" x1="871.5" x2="926.5" y1="1091.44" y2="1091.44"/><line style="stroke:#181818;stroke-width:0.5;" x1="871.5" x2="926.5" y1="1099.44" y2="1099.44"/></g><!--class Define--><g id="elem_Define"><rect codeLine="130" fill="#F1F1F1" height="48" id="Define" rx="2.5" ry="2.5" style="stroke:#181818;stroke-width:0.5;" width="73" x="962.5" y="1059.44"/><ellipse cx="977.5" cy="1075.44" fill="#ADD1B2" rx="11" ry="11" style="stroke:#181818;stroke-width:1.0;"/><path d="M972.5,1076.5963 C972.5,1079.0963 974.6406,1080.9088 977.5625,1080.9088 C978.7969,1080.9088 979.9688,1080.6119 980.7188,1080.0963 C981.3281,1079.6744 981.6563,1079.2525 981.6563,1078.8463 C981.6563,1078.3775 981.2344,1077.9713 980.7344,1077.9713 C980.5,1077.9713 980.2813,1078.0494 980.0781,1078.2525 C979.6406,1078.69 979.6406,1078.69 979.4688,1078.7838 C979.0156,1079.0181 978.375,1079.1588 977.6094,1079.1588 C975.6094,1079.1588 974.3281,1078.1431 974.3281,1076.565 L974.3281,1075.5181 C974.3281,1073.815 975.5469,1072.6119 977.25,1072.6119 C977.8281,1072.6119 978.4063,1072.7525 978.875,1073.0025 C979.3438,1073.2681 979.5156,1073.4556 979.5781,1073.815 C979.7031,1074.4869 979.9531,1074.7369 980.4844,1074.7369 C980.7656,1074.7369 981.0469,1074.5963 981.2344,1074.3775 C981.3594,1074.2056 981.4063,1074.0338 981.4063,1073.5963 L981.4063,1072.2369 C981.4063,1071.815 981.3906,1071.6744 981.2656,1071.5025 C981.0938,1071.2525 980.8125,1071.0963 980.4844,1071.0963 C980.1719,1071.0963 979.9688,1071.2056 979.75,1071.4713 C978.5781,1070.9713 978.1406,1070.8619 977.1875,1070.8619 C974.5156,1070.8619 972.5,1072.8775 972.5,1075.5025 L972.5,1076.5963 Z " fill="#000000"/><text fill="#000000" font-family="sans-serif" font-size="14" lengthAdjust="spacing" textLength="41" x="991.5" y="1080.5225">Define</text><line style="stroke:#181818;stroke-width:0.5;" x1="963.5" x2="1034.5" y1="1091.44" y2="1091.44"/><line style="stroke:#181818;stroke-width:0.5;" x1="963.5" x2="1034.5" y1="1099.44" y2="1099.44"/></g><!--class GetHead--><g id="elem_GetHead"><rect codeLine="134" fill="#F1F1F1" height="48" id="GetHead" rx="2.5" ry="2.5" style="stroke:#181818;stroke-width:0.5;" width="88" x="1070" y="1059.44"/><ellipse cx="1085" cy="1075.44" fill="#ADD1B2" rx="11" ry="11" style="stroke:#181818;stroke-width:1.0;"/><path d="M1080,1076.5963 C1080,1079.0963 1082.1406,1080.9088 1085.0625,1080.9088 C1086.2969,1080.9088 1087.4688,1080.6119 1088.2188,1080.0963 C1088.8281,1079.6744 1089.1563,1079.2525 1089.1563,1078.8463 C1089.1563,1078.3775 1088.7344,1077.9713 1088.2344,1077.9713 C1088,1077.9713 1087.7813,1078.0494 1087.5781,1078.2525 C1087.1406,1078.69 1087.1406,1078.69 1086.9688,1078.7838 C1086.5156,1079.0181 1085.875,1079.1588 1085.1094,1079.1588 C1083.1094,1079.1588 1081.8281,1078.1431 1081.8281,1076.565 L1081.8281,1075.5181 C1081.8281,1073.815 1083.0469,1072.6119 1084.75,1072.6119 C1085.3281,1072.6119 1085.9063,1072.7525 1086.375,1073.0025 C1086.8438,1073.2681 1087.0156,1073.4556 1087.0781,1073.815 C1087.2031,1074.4869 1087.4531,1074.7369 1087.9844,1074.7369 C1088.2656,1074.7369 1088.5469,1074.5963 1088.7344,1074.3775 C1088.8594,1074.2056 1088.9063,1074.0338 1088.9063,1073.5963 L1088.9063,1072.2369 C1088.9063,1071.815 1088.8906,1071.6744 1088.7656,1071.5025 C1088.5938,1071.2525 1088.3125,1071.0963 1087.9844,1071.0963 C1087.6719,1071.0963 1087.4688,1071.2056 1087.25,1071.4713 C1086.0781,1070.9713 1085.6406,1070.8619 1084.6875,1070.8619 C1082.0156,1070.8619 1080,1072.8775 1080,1075.5025 L1080,1076.5963 Z " fill="#000000"/><text fill="#000000" font-family="sans-serif" font-size="14" lengthAdjust="spacing" textLength="56" x="1099" y="1080.5225">GetHead</text><line style="stroke:#181818;stroke-width:0.5;" x1="1071" x2="1157" y1="1091.44" y2="1091.44"/><line style="stroke:#181818;stroke-width:0.5;" x1="1071" x2="1157" y1="1099.44" y2="1099.44"/></g><!--class ArgsManager--><g id="elem_ArgsManager"><rect codeLine="145" fill="#F1F1F1" height="80.1973" id="ArgsManager" rx="2.5" ry="2.5" style="stroke:#181818;stroke-width:0.5;" width="235" x="1877.5" y="218.09"/><ellipse cx="1948.25" cy="234.09" fill="#ADD1B2" rx="11" ry="11" style="stroke:#181818;stroke-width:1.0;"/><path d="M1943.25,235.2463 C1943.25,237.7463 1945.3906,239.5588 1948.3125,239.5588 C1949.5469,239.5588 1950.7188,239.2619 1951.4688,238.7463 C1952.0781,238.3244 1952.4063,237.9025 1952.4063,237.4963 C1952.4063,237.0275 1951.9844,236.6213 1951.4844,236.6213 C1951.25,236.6213 1951.0313,236.6994 1950.8281,236.9025 C1950.3906,237.34 1950.3906,237.34 1950.2188,237.4338 C1949.7656,237.6681 1949.125,237.8088 1948.3594,237.8088 C1946.3594,237.8088 1945.0781,236.7931 1945.0781,235.215 L1945.0781,234.1681 C1945.0781,232.465 1946.2969,231.2619 1948,231.2619 C1948.5781,231.2619 1949.1563,231.4025 1949.625,231.6525 C1950.0938,231.9181 1950.2656,232.1056 1950.3281,232.465 C1950.4531,233.1369 1950.7031,233.3869 1951.2344,233.3869 C1951.5156,233.3869 1951.7969,233.2463 1951.9844,233.0275 C1952.1094,232.8556 1952.1563,232.6838 1952.1563,232.2463 L1952.1563,230.8869 C1952.1563,230.465 1952.1406,230.3244 1952.0156,230.1525 C1951.8438,229.9025 1951.5625,229.7463 1951.2344,229.7463 C1950.9219,229.7463 1950.7188,229.8556 1950.5,230.1213 C1949.3281,229.6213 1948.8906,229.5119 1947.9375,229.5119 C1945.2656,229.5119 1943.25,231.5275 1943.25,234.1525 L1943.25,235.2463 Z " fill="#000000"/><text fill="#000000" font-family="sans-serif" font-size="14" lengthAdjust="spacing" textLength="85" x="1968.75" y="239.1725">ArgsManager</text><line style="stroke:#181818;stroke-width:0.5;" x1="1878.5" x2="2111.5" y1="250.09" y2="250.09"/><rect fill="none" height="6" style="stroke:#C82930;stroke-width:1.0;" width="6" x="1885.5" y="260.6393"/><text fill="#000000" font-family="sans-serif" font-size="14" lengthAdjust="spacing" textLength="209" x="1897.5" y="267.2218">HashMap&lt;String, String&gt; argMap</text><line style="stroke:#181818;stroke-width:0.5;" x1="1878.5" x2="2111.5" y1="274.1886" y2="274.1886"/><ellipse cx="1888.5" cy="287.7379" fill="#84BE84" rx="3" ry="3" style="stroke:#038048;stroke-width:1.0;"/><text fill="#000000" font-family="sans-serif" font-size="14" lengthAdjust="spacing" textLength="156" x="1897.5" y="291.3205">String getArg(String key)</text></g><!--class FileManager--><g id="elem_FileManager"><rect codeLine="150" fill="#F1F1F1" height="96.2959" id="FileManager" rx="2.5" ry="2.5" style="stroke:#181818;stroke-width:0.5;" width="240" x="2147" y="210.04"/><ellipse cx="2223.25" cy="226.04" fill="#ADD1B2" rx="11" ry="11" style="stroke:#181818;stroke-width:1.0;"/><path d="M2218.25,227.1962 C2218.25,229.6962 2220.3906,231.5087 2223.3125,231.5087 C2224.5469,231.5087 2225.7188,231.2119 2226.4688,230.6962 C2227.0781,230.2744 2227.4063,229.8525 2227.4063,229.4462 C2227.4063,228.9775 2226.9844,228.5712 2226.4844,228.5712 C2226.25,228.5712 2226.0313,228.6494 2225.8281,228.8525 C2225.3906,229.29 2225.3906,229.29 2225.2188,229.3837 C2224.7656,229.6181 2224.125,229.7587 2223.3594,229.7587 C2221.3594,229.7587 2220.0781,228.7431 2220.0781,227.165 L2220.0781,226.1181 C2220.0781,224.415 2221.2969,223.2119 2223,223.2119 C2223.5781,223.2119 2224.1563,223.3525 2224.625,223.6025 C2225.0938,223.8681 2225.2656,224.0556 2225.3281,224.415 C2225.4531,225.0869 2225.7031,225.3369 2226.2344,225.3369 C2226.5156,225.3369 2226.7969,225.1962 2226.9844,224.9775 C2227.1094,224.8056 2227.1563,224.6337 2227.1563,224.1962 L2227.1563,222.8369 C2227.1563,222.415 2227.1406,222.2744 2227.0156,222.1025 C2226.8438,221.8525 2226.5625,221.6962 2226.2344,221.6962 C2225.9219,221.6962 2225.7188,221.8056 2225.5,222.0712 C2224.3281,221.5712 2223.8906,221.4619 2222.9375,221.4619 C2220.2656,221.4619 2218.25,223.4775 2218.25,226.1025 L2218.25,227.1962 Z " fill="#000000"/><text fill="#000000" font-family="sans-serif" font-size="14" lengthAdjust="spacing" textLength="79" x="2243.75" y="231.1225">FileManager</text><line style="stroke:#181818;stroke-width:0.5;" x1="2148" x2="2386" y1="242.04" y2="242.04"/><line style="stroke:#181818;stroke-width:0.5;" x1="2148" x2="2386" y1="250.04" y2="250.04"/><ellipse cx="2158" cy="263.5893" fill="#84BE84" rx="3" ry="3" style="stroke:#038048;stroke-width:1.0;"/><text fill="#000000" font-family="sans-serif" font-size="14" lengthAdjust="spacing" textLength="162" x="2167" y="267.1718">Path getPath(String Path)</text><ellipse cx="2158" cy="279.6879" fill="#84BE84" rx="3" ry="3" style="stroke:#038048;stroke-width:1.0;"/><text fill="#000000" font-family="sans-serif" font-size="14" lengthAdjust="spacing" textLength="148" x="2167" y="283.2705">String readFile(File file)</text><ellipse cx="2158" cy="295.7866" fill="#84BE84" rx="3" ry="3" style="stroke:#038048;stroke-width:1.0;"/><text fill="#000000" font-family="sans-serif" font-size="14" lengthAdjust="spacing" textLength="214" x="2167" y="299.3691">void writeFile(File file, String data)</text></g><!--class FunctionSignature--><g id="elem_FunctionSignature"><rect codeLine="156" fill="#F1F1F1" height="128.4932" id="FunctionSignature" rx="2.5" ry="2.5" style="stroke:#181818;stroke-width:0.5;" width="148" x="1353" y="1627.22"/><ellipse cx="1368" cy="1643.22" fill="#ADD1B2" rx="11" ry="11" style="stroke:#181818;stroke-width:1.0;"/><path d="M1363,1644.3763 C1363,1646.8763 1365.1406,1648.6888 1368.0625,1648.6888 C1369.2969,1648.6888 1370.4688,1648.3919 1371.2188,1647.8763 C1371.8281,1647.4544 1372.1563,1647.0325 1372.1563,1646.6263 C1372.1563,1646.1575 1371.7344,1645.7513 1371.2344,1645.7513 C1371,1645.7513 1370.7813,1645.8294 1370.5781,1646.0325 C1370.1406,1646.47 1370.1406,1646.47 1369.9688,1646.5638 C1369.5156,1646.7981 1368.875,1646.9388 1368.1094,1646.9388 C1366.1094,1646.9388 1364.8281,1645.9231 1364.8281,1644.345 L1364.8281,1643.2981 C1364.8281,1641.595 1366.0469,1640.3919 1367.75,1640.3919 C1368.3281,1640.3919 1368.9063,1640.5325 1369.375,1640.7825 C1369.8438,1641.0481 1370.0156,1641.2356 1370.0781,1641.595 C1370.2031,1642.2669 1370.4531,1642.5169 1370.9844,1642.5169 C1371.2656,1642.5169 1371.5469,1642.3763 1371.7344,1642.1575 C1371.8594,1641.9856 1371.9063,1641.8138 1371.9063,1641.3763 L1371.9063,1640.0169 C1371.9063,1639.595 1371.8906,1639.4544 1371.7656,1639.2825 C1371.5938,1639.0325 1371.3125,1638.8763 1370.9844,1638.8763 C1370.6719,1638.8763 1370.4688,1638.9856 1370.25,1639.2513 C1369.0781,1638.7513 1368.6406,1638.6419 1367.6875,1638.6419 C1365.0156,1638.6419 1363,1640.6575 1363,1643.2825 L1363,1644.3763 Z " fill="#000000"/><text fill="#000000" font-family="sans-serif" font-size="14" lengthAdjust="spacing" textLength="116" x="1382" y="1648.3025">FunctionSignature</text><line style="stroke:#181818;stroke-width:0.5;" x1="1354" x2="1500" y1="1659.22" y2="1659.22"/><rect fill="none" height="6" style="stroke:#C82930;stroke-width:1.0;" width="6" x="1361" y="1669.7693"/><text fill="#000000" font-family="sans-serif" font-size="14" lengthAdjust="spacing" textLength="76" x="1373" y="1676.3518">String name</text><rect fill="none" height="6" style="stroke:#C82930;stroke-width:1.0;" width="6" x="1361" y="1685.8679"/><text fill="#000000" font-family="sans-serif" font-size="14" lengthAdjust="spacing" textLength="57" x="1373" y="1692.4505">int inputs</text><rect fill="none" height="6" style="stroke:#C82930;stroke-width:1.0;" width="6" x="1361" y="1701.9666"/><text fill="#000000" font-family="sans-serif" font-size="14" lengthAdjust="spacing" textLength="66" x="1373" y="1708.5491">int outputs</text><text fill="#000000" font-family="sans-serif" font-size="14" lengthAdjust="spacing" textLength="4" x="1373" y="1724.6477">&#160;</text><line style="stroke:#181818;stroke-width:1.0;" x1="1354" x2="1500" y1="1731.6145" y2="1731.6145"/><text fill="#000000" font-family="sans-serif" font-size="14" lengthAdjust="spacing" textLength="135" x="1359" y="1748.7464">... getters and setters</text></g><!--class LibraryFunctions--><g id="elem_LibraryFunctions"><rect codeLine="168" fill="#F1F1F1" height="80.1973" id="LibraryFunctions" rx="2.5" ry="2.5" style="stroke:#181818;stroke-width:0.5;" width="437" x="700.5" y="1471.02"/><ellipse cx="861.75" cy="1487.02" fill="#ADD1B2" rx="11" ry="11" style="stroke:#181818;stroke-width:1.0;"/><path d="M856.75,1488.1763 C856.75,1490.6763 858.8906,1492.4888 861.8125,1492.4888 C863.0469,1492.4888 864.2188,1492.1919 864.9688,1491.6763 C865.5781,1491.2544 865.9063,1490.8325 865.9063,1490.4263 C865.9063,1489.9575 865.4844,1489.5513 864.9844,1489.5513 C864.75,1489.5513 864.5313,1489.6294 864.3281,1489.8325 C863.8906,1490.27 863.8906,1490.27 863.7188,1490.3638 C863.2656,1490.5981 862.625,1490.7388 861.8594,1490.7388 C859.8594,1490.7388 858.5781,1489.7231 858.5781,1488.145 L858.5781,1487.0981 C858.5781,1485.395 859.7969,1484.1919 861.5,1484.1919 C862.0781,1484.1919 862.6563,1484.3325 863.125,1484.5825 C863.5938,1484.8481 863.7656,1485.0356 863.8281,1485.395 C863.9531,1486.0669 864.2031,1486.3169 864.7344,1486.3169 C865.0156,1486.3169 865.2969,1486.1763 865.4844,1485.9575 C865.6094,1485.7856 865.6563,1485.6138 865.6563,1485.1763 L865.6563,1483.8169 C865.6563,1483.395 865.6406,1483.2544 865.5156,1483.0825 C865.3438,1482.8325 865.0625,1482.6763 864.7344,1482.6763 C864.4219,1482.6763 864.2188,1482.7856 864,1483.0513 C862.8281,1482.5513 862.3906,1482.4419 861.4375,1482.4419 C858.7656,1482.4419 856.75,1484.4575 856.75,1487.0825 L856.75,1488.1763 Z " fill="#000000"/><text fill="#000000" font-family="sans-serif" font-size="14" lengthAdjust="spacing" textLength="106" x="882.25" y="1492.1025">LibraryFunctions</text><line style="stroke:#181818;stroke-width:0.5;" x1="701.5" x2="1136.5" y1="1503.02" y2="1503.02"/><line style="stroke:#181818;stroke-width:0.5;" x1="701.5" x2="1136.5" y1="1511.02" y2="1511.02"/><ellipse cx="711.5" cy="1524.5693" fill="#84BE84" rx="3" ry="3" style="stroke:#038048;stroke-width:1.0;"/><text fill="#000000" font-family="sans-serif" font-size="14" lengthAdjust="spacing" textLength="411" x="720.5" y="1528.1518">void addTo(HashMap&lt;String, T&gt; target, Supplier&lt;T&gt; constructor)</text><ellipse cx="711.5" cy="1540.6679" fill="#84BE84" rx="3" ry="3" style="stroke:#038048;stroke-width:1.0;"/><text fill="#000000" font-family="sans-serif" font-size="14" lengthAdjust="spacing" textLength="204" x="720.5" y="1544.2505">void addTo(SymbolTable target)</text></g><!--reverse link Visitor to TypeVisitor--><g id="link_Visitor_TypeVisitor"><path codeLine="35" d="M1590.4742,414.4781 C1624.7242,449.8881 1647.23,475.85 1677,514.37 C1710.21,557.34 1741,613.17 1757.17,644.21 " fill="none" id="Visitor-backto-TypeVisitor" style="stroke:#181818;stroke-width:1.0;"/><polygon fill="none" points="1577.96,401.54,1586.1615,418.6495,1594.7869,410.3067,1577.96,401.54" style="stroke:#181818;stroke-width:1.0;"/></g><!--reverse link SymbolTable to SymbolInfo--><g id="link_SymbolTable_SymbolInfo"><path codeLine="56" d="M377.91,1083.44 C389.31,1083.44 388.71,1083.44 400.11,1083.44 " fill="none" id="SymbolTable-backto-SymbolInfo" style="stroke:#181818;stroke-width:1.0;"/><polygon fill="#181818" points="365.91,1083.44,371.91,1087.44,377.91,1083.44,371.91,1079.44,365.91,1083.44" style="stroke:#181818;stroke-width:1.0;"/></g><!--reverse link SymbolsVisitor to SymbolTable--><g id="link_SymbolsVisitor_SymbolTable"><path codeLine="61" d="M372.0338,711.9312 C342.6538,777.5112 278.98,919.6 238.17,1010.65 " fill="none" id="SymbolsVisitor-backto-SymbolTable" style="stroke:#181818;stroke-width:1.0;"/><polygon fill="#181818" points="376.94,700.98,370.8365,704.8202,372.0338,711.9312,378.1373,708.091,376.94,700.98" style="stroke:#181818;stroke-width:1.0;"/></g><!--reverse link Visitor to SymbolsVisitor--><g id="link_Visitor_SymbolsVisitor"><path codeLine="64" d="M1258.5824,296.0293 C1090.9524,335.6393 832.43,406.56 612,514.37 C542.79,548.22 470.99,602.09 428.69,636.12 " fill="none" id="Visitor-backto-SymbolsVisitor" style="stroke:#181818;stroke-width:1.0;"/><polygon fill="none" points="1276.1,291.89,1257.2026,290.1901,1259.9622,301.8685,1276.1,291.89" style="stroke:#181818;stroke-width:1.0;"/></g><!--reverse link Instruction to Call--><g id="link_Instruction_Call"><path codeLine="119" d="M811.0759,706.1187 C767.8359,727.1687 731.72,752.2 702,797.86 C647.53,881.54 650.02,1007.63 653.77,1059.2 " fill="none" id="Instruction-backto-Call" style="stroke:#181818;stroke-width:1.0;"/><polygon fill="none" points="827.26,698.24,808.4496,700.724,813.7021,711.5134,827.26,698.24" style="stroke:#181818;stroke-width:1.0;"/></g><!--reverse link Instruction to CloseContext--><g id="link_Instruction_CloseContext"><path codeLine="123" d="M867.4952,754.0867 C860.4852,773.5667 859.2,777.99 853,797.86 C823.05,893.78 794.3,1010.12 782.55,1059.01 " fill="none" id="Instruction-backto-CloseContext" style="stroke:#181818;stroke-width:1.0;"/><polygon fill="none" points="873.59,737.15,861.8496,752.0552,873.1408,756.1183,873.59,737.15" style="stroke:#181818;stroke-width:1.0;"/></g><!--reverse link Instruction to Dec--><g id="link_Instruction_Dec"><path codeLine="127" d="M899,755.32 C899,849.8 899,998.42 899,1059.32 " fill="none" id="Instruction-backto-Dec" style="stroke:#181818;stroke-width:1.0;"/><polygon fill="none" points="899,737.32,893,755.32,905,755.32,899,737.32" style="stroke:#181818;stroke-width:1.0;"/></g><!--reverse link Instruction to Define--><g id="link_Instruction_Define"><path codeLine="131" d="M931.5766,754.1361 C938.5566,773.5261 939.56,777.89 945,797.86 C971.04,893.45 988.98,1010.44 995.87,1059.29 " fill="none" id="Instruction-backto-Define" style="stroke:#181818;stroke-width:1.0;"/><polygon fill="none" points="925.48,737.2,925.9313,756.1683,937.222,752.1039,925.48,737.2" style="stroke:#181818;stroke-width:1.0;"/></g><!--reverse link Instruction to GetHead--><g id="link_Instruction_GetHead"><path codeLine="135" d="M984.5251,745.7484 C1018.6151,774.1284 1029.35,760.33 1053,797.86 C1106.6,882.94 1113.73,1007.71 1114.25,1059.05 " fill="none" id="Instruction-backto-GetHead" style="stroke:#181818;stroke-width:1.0;"/><polygon fill="none" points="970.76,734.15,980.659,750.3367,988.3912,741.16,970.76,734.15" style="stroke:#181818;stroke-width:1.0;"/></g><!--reverse link Visitor to IntermediateCodeVisitor--><g id="link_Visitor_IntermediateCodeVisitor"><path codeLine="139" d="M1427,493.66 C1427,561.9 1427,610.3 1427,644.25 " fill="none" id="Visitor-backto-IntermediateCodeVisitor" style="stroke:#181818;stroke-width:1.0;"/><polygon fill="none" points="1427,475.66,1421,493.66,1433,493.66,1427,475.66" style="stroke:#181818;stroke-width:1.0;"/></g><!--reverse link IntermediateCodeVisitor to IntermediateFunction--><g id="link_IntermediateCodeVisitor_IntermediateFunction"><path codeLine="140" d="M1427,704.99 C1427,728.02 1427,753.98 1427,797.4 " fill="none" id="IntermediateCodeVisitor-backto-IntermediateFunction" style="stroke:#181818;stroke-width:1.0;"/><polygon fill="#181818" points="1427,692.99,1423,698.99,1427,704.99,1431,698.99,1427,692.99" style="stroke:#181818;stroke-width:1.0;"/></g><!--link IntermediateFunction to FunctionSignature--><g id="link_IntermediateFunction_FunctionSignature"><path codeLine="164" d="M1427,1369.26 C1427,1465.74 1427,1546.69 1427,1608.8 " fill="none" id="IntermediateFunction-to-FunctionSignature" style="stroke:#181818;stroke-width:1.0;"/><polygon fill="none" points="1427,1626.8,1433,1608.8,1421,1608.8,1427,1626.8" style="stroke:#181818;stroke-width:1.0;"/></g><!--link LibraryFunctions to FunctionSignature--><g id="link_LibraryFunctions_FunctionSignature"><path codeLine="165" d="M1031.74,1551.7 C1129.52,1586.03 1262.5787,1632.7428 1347.0187,1662.3828 " fill="none" id="LibraryFunctions-to-FunctionSignature" style="stroke:#181818;stroke-width:1.0;stroke-dasharray:7.0,7.0;"/><polygon fill="#181818" points="1352.68,1664.37,1345.5128,1657.6149,1347.9622,1662.714,1342.8631,1665.1634,1352.68,1664.37" style="stroke:#181818;stroke-width:1.0;"/><text fill="#000000" font-family="sans-serif" font-size="13" lengthAdjust="spacing" textLength="28" x="1158.77" y="1594.4138">uses</text></g><!--link TypeVisitor to FunctionSignature--><g id="link_TypeVisitor_FunctionSignature"><path codeLine="166" d="M1771.09,692.99 C1778.61,788.25 1797.85,1154.58 1677,1417.02 C1637.11,1503.64 1564.1184,1577.7054 1505.9284,1628.0254 " fill="none" id="TypeVisitor-to-FunctionSignature" style="stroke:#181818;stroke-width:1.0;stroke-dasharray:7.0,7.0;"/><polygon fill="#181818" points="1501.39,1631.95,1510.8141,1629.0887,1505.172,1628.6795,1505.5812,1623.0374,1501.39,1631.95" style="stroke:#181818;stroke-width:1.0;"/><text fill="#000000" font-family="sans-serif" font-size="13" lengthAdjust="spacing" textLength="28" x="1673.9" y="1438.2138">uses</text></g><!--reverse link SymbolTable to LibraryFunctions--><g id="link_SymbolTable_LibraryFunctions"><path codeLine="172" d="M225.5763,1161.6863 C248.7663,1238.8763 295.33,1353.52 383,1417.02 C433.63,1453.69 575.21,1477.33 700.15,1491.61 " fill="none" id="SymbolTable-backto-LibraryFunctions" style="stroke:#181818;stroke-width:1.0;stroke-dasharray:7.0,7.0;"/><polygon fill="#181818" points="223.85,1155.94,222.6087,1165.7103,225.2886,1160.7286,230.2704,1163.4085,223.85,1155.94" style="stroke:#181818;stroke-width:1.0;"/><text fill="#000000" font-family="sans-serif" font-size="13" lengthAdjust="spacing" textLength="28" x="432.6" y="1438.2138">uses</text></g><!--SRC=[hLXDRziu4BthLn3enMxY0Esny1e84hGraA2BsjXBiGXeQImBaKY1fDmQQVxx3YLI9YLAjjFrGQR9zuR3uNp99OsVQGhadqncYWlo4aK4FtGZbQ2nSkQ9-TpQfGBKZYVoKxjoHLuixvNiUPQGlMO_bOAdWXQJjG0WviUqPRqRO6qh5gkCiuQcy76Qax6oKl8I1g_KfHJ6oqlWyAiKJ_9GR7X-CMrFHKOtELnCPDdbcyMSuL8LutK_vPbKVoH0ZoyNGFEtg5sKL0HDD9krmsLHvb00Kv3q7VTTJ-WEQ1BMf8jKTCZK3X9rB2XBpiN9ixO6AGV38mWzBJRRdeJyt6L3_kW6BnVdO836koxkbTHVzQCqsMbzAC59GN5EfQmdJNfgYFNJ9gpvxzdCWtW2LtKyofxCPdwjOyvPgts9h1IIvu-qdA-Ko5XwRT1BjkMB1P4nBq567kcgEUy6qeojzFfa6be7beoiOdwQD3kI9esu6vifFUoIDvpdG1cnMtiokc2pg7WpS3HvZO8sgZVlcYXZYkGPWy1qpFEgO3sJrhjYib0OciGtdXEz-dDpSqDIK0g491WZH3RZevwa7Rgt-7xcA1m-YkmNEQEU8oVd_Bagwx5Z6d_7Lj3xcKUEXlpJfqM-ZoxHAAA09ACAxdZI3u0kmFFqCEopAQgzezuAGGyFcFNdIvF44RN0csj_o0xZAvKx7GnQV0hYsbpcWj0aqGbdpR-ZsqlSUt0hosZAzWFTGFw_Oarn3u7Ru92hzJtvYsnfBc7K_mA-XouvncYZAiP4f-0BLzm6OQtIT0nT8oQZaENMYXF6qYVWZAjJZ3hZl0t_hGHsfoFvbvgCmEvoBc48voby3rlC9LQ3_AJ937uKqqISbRcdUGK3UBpZxx0z1pcehOs9CDknoIFVTmtTSYMlH3n6Ne7wgjkLFn6mrbtCcmLyyJLey2qz0Qd6oUxkvv8noooPKng3xc6Ht-f4C0erpgaxq632jAyZrxgQ_VWNhQHGKsb_cgG7SYoWMDotiQwDfzpZ7YuXjgNyhYnNMSgegiHWLDIeSBK_rg6s1dJAHlkME0pnwZmLwOUnrO_znLblwemyFC0Sxd5w2Dye7SCSIwjs5s_QDKHTuMj4aEgamHCYN6H85Bh7k0GD21EttMOjmAqn8Re9-t5-5_Gws0mDjJEDsE1QtMY5mZMAS9-eKVDMfFAHCdHbs-4TcvUsaxUzYqXnEl9211qEHTW0V8R3L0jlP7_6bo5VzXNvcwgT9kblozBZgIyM8plHz8b-a2q-BA2E_9yYm-DuwyUaI1LrbJ27ReEzFQR1Crf0T6p5cnQAE3EcKJ8Dk0cTeORxDGecoDdizwAlIlIGRGGL1xiWKMm0HZwH2fDdvBomZGFDqNlINo8_yw_vf7lNwmLHUC-Wq9vLMUOPY3dEEVzUJFj2t5U1Xgqlm9sTexbwwXXj_mC0]--></g></svg>